<mxfile host="Electron" agent="Mozilla/5.0 (Macintosh; Intel Mac OS X 10_15_7) AppleWebKit/537.36 (KHTML, like Gecko) draw.io/28.0.6 Chrome/138.0.7204.100 Electron/37.2.3 Safari/537.36" version="28.0.6" pages="2">
  <diagram name="Cadastro de conta de usuário" id="cZZNo1MIoOM2eXcmTVUO">
    <mxGraphModel dx="2042" dy="757" grid="1" gridSize="10" guides="1" tooltips="1" connect="1" arrows="1" fold="1" page="1" pageScale="1" pageWidth="827" pageHeight="1169" math="0" shadow="0">
      <root>
        <mxCell id="0" />
        <mxCell id="1" parent="0" />
        <mxCell id="ozKWasDPuvRTRIA99ivV-1" value="Cliente" style="swimlane;startSize=20;whiteSpace=wrap;html=1;" vertex="1" parent="1">
          <mxGeometry x="-10" y="100" width="210" height="500" as="geometry" />
        </mxCell>
        <mxCell id="ozKWasDPuvRTRIA99ivV-23" style="edgeStyle=orthogonalEdgeStyle;rounded=0;orthogonalLoop=1;jettySize=auto;html=1;exitX=0.5;exitY=1;exitDx=0;exitDy=0;" edge="1" parent="ozKWasDPuvRTRIA99ivV-1" source="ozKWasDPuvRTRIA99ivV-7" target="ozKWasDPuvRTRIA99ivV-8">
          <mxGeometry relative="1" as="geometry" />
        </mxCell>
        <mxCell id="ozKWasDPuvRTRIA99ivV-7" value="" style="ellipse;fillColor=strokeColor;html=1;" vertex="1" parent="ozKWasDPuvRTRIA99ivV-1">
          <mxGeometry x="95" y="40" width="30" height="30" as="geometry" />
        </mxCell>
        <mxCell id="ozKWasDPuvRTRIA99ivV-8" value="enviar informações de conta de usuário" style="html=1;align=center;verticalAlign=top;rounded=1;absoluteArcSize=1;arcSize=10;dashed=0;whiteSpace=wrap;" vertex="1" parent="ozKWasDPuvRTRIA99ivV-1">
          <mxGeometry x="40" y="100" width="140" height="40" as="geometry" />
        </mxCell>
        <mxCell id="ozKWasDPuvRTRIA99ivV-3" value="Backend" style="swimlane;startSize=20;whiteSpace=wrap;html=1;" vertex="1" parent="1">
          <mxGeometry x="200" y="100" width="200" height="500" as="geometry" />
        </mxCell>
        <mxCell id="ozKWasDPuvRTRIA99ivV-18" style="edgeStyle=orthogonalEdgeStyle;rounded=0;orthogonalLoop=1;jettySize=auto;html=1;exitX=0.5;exitY=1;exitDx=0;exitDy=0;" edge="1" parent="ozKWasDPuvRTRIA99ivV-3" source="ozKWasDPuvRTRIA99ivV-13" target="ozKWasDPuvRTRIA99ivV-14">
          <mxGeometry relative="1" as="geometry" />
        </mxCell>
        <mxCell id="ozKWasDPuvRTRIA99ivV-13" value="gerar salt aleatório" style="html=1;align=center;verticalAlign=top;rounded=1;absoluteArcSize=1;arcSize=10;dashed=0;whiteSpace=wrap;" vertex="1" parent="ozKWasDPuvRTRIA99ivV-3">
          <mxGeometry x="30" y="100" width="140" height="40" as="geometry" />
        </mxCell>
        <mxCell id="ozKWasDPuvRTRIA99ivV-19" style="edgeStyle=orthogonalEdgeStyle;rounded=0;orthogonalLoop=1;jettySize=auto;html=1;exitX=0.5;exitY=1;exitDx=0;exitDy=0;" edge="1" parent="ozKWasDPuvRTRIA99ivV-3" source="ozKWasDPuvRTRIA99ivV-14" target="ozKWasDPuvRTRIA99ivV-15">
          <mxGeometry relative="1" as="geometry" />
        </mxCell>
        <mxCell id="ozKWasDPuvRTRIA99ivV-14" value="gerar hash usando&amp;nbsp;&lt;div&gt;o salt gerado&lt;/div&gt;" style="html=1;align=center;verticalAlign=top;rounded=1;absoluteArcSize=1;arcSize=10;dashed=0;whiteSpace=wrap;" vertex="1" parent="ozKWasDPuvRTRIA99ivV-3">
          <mxGeometry x="30" y="170" width="140" height="40" as="geometry" />
        </mxCell>
        <mxCell id="ozKWasDPuvRTRIA99ivV-15" value="cadastrar nova conta de usuário" style="html=1;align=center;verticalAlign=top;rounded=1;absoluteArcSize=1;arcSize=10;dashed=0;whiteSpace=wrap;" vertex="1" parent="ozKWasDPuvRTRIA99ivV-3">
          <mxGeometry x="30" y="250" width="140" height="40" as="geometry" />
        </mxCell>
        <mxCell id="ozKWasDPuvRTRIA99ivV-27" value="" style="edgeStyle=orthogonalEdgeStyle;rounded=0;orthogonalLoop=1;jettySize=auto;html=1;" edge="1" parent="ozKWasDPuvRTRIA99ivV-3" source="ozKWasDPuvRTRIA99ivV-24" target="ozKWasDPuvRTRIA99ivV-26">
          <mxGeometry relative="1" as="geometry" />
        </mxCell>
        <mxCell id="ozKWasDPuvRTRIA99ivV-24" value="permitir acesso ao sistema" style="html=1;align=center;verticalAlign=top;rounded=1;absoluteArcSize=1;arcSize=10;dashed=0;whiteSpace=wrap;" vertex="1" parent="ozKWasDPuvRTRIA99ivV-3">
          <mxGeometry x="30" y="330" width="140" height="40" as="geometry" />
        </mxCell>
        <mxCell id="ozKWasDPuvRTRIA99ivV-26" value="" style="ellipse;html=1;shape=endState;fillColor=strokeColor;" vertex="1" parent="ozKWasDPuvRTRIA99ivV-3">
          <mxGeometry x="85" y="420" width="30" height="30" as="geometry" />
        </mxCell>
        <mxCell id="ozKWasDPuvRTRIA99ivV-5" value="API" style="swimlane;startSize=20;whiteSpace=wrap;html=1;" vertex="1" parent="1">
          <mxGeometry x="400" y="100" width="190" height="500" as="geometry" />
        </mxCell>
        <mxCell id="ozKWasDPuvRTRIA99ivV-22" value="" style="edgeStyle=orthogonalEdgeStyle;rounded=0;orthogonalLoop=1;jettySize=auto;html=1;" edge="1" parent="ozKWasDPuvRTRIA99ivV-5" source="ozKWasDPuvRTRIA99ivV-16" target="ozKWasDPuvRTRIA99ivV-21">
          <mxGeometry relative="1" as="geometry" />
        </mxCell>
        <mxCell id="ozKWasDPuvRTRIA99ivV-16" value="armazenar no banco de dados" style="html=1;align=center;verticalAlign=top;rounded=1;absoluteArcSize=1;arcSize=10;dashed=0;whiteSpace=wrap;" vertex="1" parent="ozKWasDPuvRTRIA99ivV-5">
          <mxGeometry x="25" y="250" width="140" height="40" as="geometry" />
        </mxCell>
        <mxCell id="ozKWasDPuvRTRIA99ivV-21" value="retornar informações do novo registro" style="html=1;align=center;verticalAlign=top;rounded=1;absoluteArcSize=1;arcSize=10;dashed=0;whiteSpace=wrap;" vertex="1" parent="ozKWasDPuvRTRIA99ivV-5">
          <mxGeometry x="25" y="330" width="140" height="40" as="geometry" />
        </mxCell>
        <mxCell id="ozKWasDPuvRTRIA99ivV-17" style="edgeStyle=orthogonalEdgeStyle;rounded=0;orthogonalLoop=1;jettySize=auto;html=1;exitX=1;exitY=0.5;exitDx=0;exitDy=0;" edge="1" parent="1" source="ozKWasDPuvRTRIA99ivV-8" target="ozKWasDPuvRTRIA99ivV-13">
          <mxGeometry relative="1" as="geometry" />
        </mxCell>
        <mxCell id="ozKWasDPuvRTRIA99ivV-20" style="edgeStyle=orthogonalEdgeStyle;rounded=0;orthogonalLoop=1;jettySize=auto;html=1;exitX=1;exitY=0.5;exitDx=0;exitDy=0;" edge="1" parent="1" source="ozKWasDPuvRTRIA99ivV-15" target="ozKWasDPuvRTRIA99ivV-16">
          <mxGeometry relative="1" as="geometry" />
        </mxCell>
        <mxCell id="ozKWasDPuvRTRIA99ivV-25" style="edgeStyle=orthogonalEdgeStyle;rounded=0;orthogonalLoop=1;jettySize=auto;html=1;exitX=0;exitY=0.5;exitDx=0;exitDy=0;" edge="1" parent="1" source="ozKWasDPuvRTRIA99ivV-21" target="ozKWasDPuvRTRIA99ivV-24">
          <mxGeometry relative="1" as="geometry" />
        </mxCell>
        <mxCell id="ozKWasDPuvRTRIA99ivV-28" value="Cadastro de conta de usuário" style="shape=umlFrame;whiteSpace=wrap;html=1;pointerEvents=0;recursiveResize=0;container=1;collapsible=0;width=200;height=30;" vertex="1" parent="1">
          <mxGeometry x="-30" y="50" width="660" height="580" as="geometry" />
        </mxCell>
      </root>
    </mxGraphModel>
  </diagram>
  <diagram name="Copy of Cadastro de conta de usuário" id="SjVKGPmCS8utw5FRIaa0">
    <mxGraphModel dx="1854" dy="797" grid="1" gridSize="10" guides="1" tooltips="1" connect="1" arrows="1" fold="1" page="1" pageScale="1" pageWidth="827" pageHeight="1169" math="0" shadow="0">
      <root>
        <mxCell id="NsYtVN0uM_aZ8hlB4DjH-0" />
        <mxCell id="NsYtVN0uM_aZ8hlB4DjH-1" parent="NsYtVN0uM_aZ8hlB4DjH-0" />
        <mxCell id="NsYtVN0uM_aZ8hlB4DjH-2" value="Cliente" style="swimlane;startSize=20;whiteSpace=wrap;html=1;" vertex="1" parent="NsYtVN0uM_aZ8hlB4DjH-1">
          <mxGeometry x="-10" y="100" width="210" height="610" as="geometry" />
        </mxCell>
        <mxCell id="NsYtVN0uM_aZ8hlB4DjH-3" style="edgeStyle=orthogonalEdgeStyle;rounded=0;orthogonalLoop=1;jettySize=auto;html=1;exitX=0.5;exitY=1;exitDx=0;exitDy=0;" edge="1" parent="NsYtVN0uM_aZ8hlB4DjH-2" source="NsYtVN0uM_aZ8hlB4DjH-4" target="NsYtVN0uM_aZ8hlB4DjH-5">
          <mxGeometry relative="1" as="geometry" />
        </mxCell>
        <mxCell id="NsYtVN0uM_aZ8hlB4DjH-4" value="" style="ellipse;fillColor=strokeColor;html=1;" vertex="1" parent="NsYtVN0uM_aZ8hlB4DjH-2">
          <mxGeometry x="95" y="40" width="30" height="30" as="geometry" />
        </mxCell>
        <mxCell id="NsYtVN0uM_aZ8hlB4DjH-5" value="enviar informações de conta de usuário" style="html=1;align=center;verticalAlign=top;rounded=1;absoluteArcSize=1;arcSize=10;dashed=0;whiteSpace=wrap;" vertex="1" parent="NsYtVN0uM_aZ8hlB4DjH-2">
          <mxGeometry x="40" y="100" width="140" height="40" as="geometry" />
        </mxCell>
        <mxCell id="NsYtVN0uM_aZ8hlB4DjH-6" value="Backend" style="swimlane;startSize=20;whiteSpace=wrap;html=1;" vertex="1" parent="NsYtVN0uM_aZ8hlB4DjH-1">
          <mxGeometry x="200" y="100" width="330" height="610" as="geometry" />
        </mxCell>
        <mxCell id="NsYtVN0uM_aZ8hlB4DjH-15" value="API" style="swimlane;startSize=20;whiteSpace=wrap;html=1;" vertex="1" parent="NsYtVN0uM_aZ8hlB4DjH-1">
          <mxGeometry x="530" y="100" width="190" height="610" as="geometry" />
        </mxCell>
        <mxCell id="NsYtVN0uM_aZ8hlB4DjH-19" style="edgeStyle=orthogonalEdgeStyle;rounded=0;orthogonalLoop=1;jettySize=auto;html=1;exitX=1;exitY=0.5;exitDx=0;exitDy=0;" edge="1" parent="NsYtVN0uM_aZ8hlB4DjH-1" source="NsYtVN0uM_aZ8hlB4DjH-5" target="NsYtVN0uM_aZ8hlB4DjH-8">
          <mxGeometry relative="1" as="geometry" />
        </mxCell>
        <mxCell id="NsYtVN0uM_aZ8hlB4DjH-22" value="Autenticação de conta de usuário" style="shape=umlFrame;whiteSpace=wrap;html=1;pointerEvents=0;recursiveResize=0;container=1;collapsible=0;width=200;height=30;" vertex="1" parent="NsYtVN0uM_aZ8hlB4DjH-1">
          <mxGeometry x="-30" y="50" width="770" height="690" as="geometry" />
        </mxCell>
        <mxCell id="vWoB-QgcXEhtbPOPWoaA-1" value="" style="edgeStyle=orthogonalEdgeStyle;rounded=0;orthogonalLoop=1;jettySize=auto;html=1;" edge="1" parent="NsYtVN0uM_aZ8hlB4DjH-22" source="NsYtVN0uM_aZ8hlB4DjH-8" target="vWoB-QgcXEhtbPOPWoaA-0">
          <mxGeometry relative="1" as="geometry" />
        </mxCell>
        <mxCell id="NsYtVN0uM_aZ8hlB4DjH-8" value="pesquisar por conta de usuário" style="html=1;align=center;verticalAlign=top;rounded=1;absoluteArcSize=1;arcSize=10;dashed=0;whiteSpace=wrap;" vertex="1" parent="NsYtVN0uM_aZ8hlB4DjH-22">
          <mxGeometry x="260" y="150" width="140" height="40" as="geometry" />
        </mxCell>
        <mxCell id="vWoB-QgcXEhtbPOPWoaA-4" style="edgeStyle=elbowEdgeStyle;rounded=0;orthogonalLoop=1;jettySize=auto;html=1;exitX=0.5;exitY=1;exitDx=0;exitDy=0;elbow=vertical;" edge="1" parent="NsYtVN0uM_aZ8hlB4DjH-22" source="vWoB-QgcXEhtbPOPWoaA-0" target="vWoB-QgcXEhtbPOPWoaA-2">
          <mxGeometry relative="1" as="geometry">
            <Array as="points">
              <mxPoint x="500" y="250" />
            </Array>
          </mxGeometry>
        </mxCell>
        <mxCell id="vWoB-QgcXEhtbPOPWoaA-0" value="retornar registro encontrado" style="html=1;align=center;verticalAlign=top;rounded=1;absoluteArcSize=1;arcSize=10;dashed=0;whiteSpace=wrap;" vertex="1" parent="NsYtVN0uM_aZ8hlB4DjH-22">
          <mxGeometry x="590" y="147.5" width="140" height="45" as="geometry" />
        </mxCell>
        <mxCell id="vWoB-QgcXEhtbPOPWoaA-6" value="" style="edgeStyle=orthogonalEdgeStyle;rounded=0;orthogonalLoop=1;jettySize=auto;html=1;" edge="1" parent="NsYtVN0uM_aZ8hlB4DjH-22" source="vWoB-QgcXEhtbPOPWoaA-2" target="vWoB-QgcXEhtbPOPWoaA-9">
          <mxGeometry relative="1" as="geometry">
            <mxPoint x="330" y="310" as="targetPoint" />
          </mxGeometry>
        </mxCell>
        <mxCell id="vWoB-QgcXEhtbPOPWoaA-2" value="gerar hash da senha recebida do cliente usando salt obtido&amp;nbsp;&lt;div&gt;da API&lt;/div&gt;" style="html=1;align=center;verticalAlign=top;rounded=1;absoluteArcSize=1;arcSize=10;dashed=0;whiteSpace=wrap;" vertex="1" parent="NsYtVN0uM_aZ8hlB4DjH-22">
          <mxGeometry x="260" y="210" width="200" height="60" as="geometry" />
        </mxCell>
        <mxCell id="NsYtVN0uM_aZ8hlB4DjH-14" value="" style="ellipse;html=1;shape=endState;fillColor=strokeColor;" vertex="1" parent="NsYtVN0uM_aZ8hlB4DjH-22">
          <mxGeometry x="315" y="600" width="30" height="30" as="geometry" />
        </mxCell>
        <mxCell id="vWoB-QgcXEhtbPOPWoaA-14" value="sim" style="edgeStyle=elbowEdgeStyle;rounded=0;orthogonalLoop=1;jettySize=auto;html=1;" edge="1" parent="NsYtVN0uM_aZ8hlB4DjH-22" source="vWoB-QgcXEhtbPOPWoaA-9" target="vWoB-QgcXEhtbPOPWoaA-13">
          <mxGeometry x="-0.6" y="20" relative="1" as="geometry">
            <Array as="points">
              <mxPoint x="330" y="440" />
            </Array>
            <mxPoint as="offset" />
          </mxGeometry>
        </mxCell>
        <mxCell id="vWoB-QgcXEhtbPOPWoaA-19" style="edgeStyle=orthogonalEdgeStyle;rounded=0;orthogonalLoop=1;jettySize=auto;html=1;exitX=1;exitY=0.5;exitDx=0;exitDy=0;" edge="1" parent="NsYtVN0uM_aZ8hlB4DjH-22" source="vWoB-QgcXEhtbPOPWoaA-9" target="vWoB-QgcXEhtbPOPWoaA-18">
          <mxGeometry relative="1" as="geometry" />
        </mxCell>
        <mxCell id="vWoB-QgcXEhtbPOPWoaA-20" value="não" style="edgeLabel;html=1;align=center;verticalAlign=middle;resizable=0;points=[];" vertex="1" connectable="0" parent="vWoB-QgcXEhtbPOPWoaA-19">
          <mxGeometry x="-0.8226" y="2" relative="1" as="geometry">
            <mxPoint x="4" y="-13" as="offset" />
          </mxGeometry>
        </mxCell>
        <mxCell id="vWoB-QgcXEhtbPOPWoaA-9" value="hash gerado &#xa;== hash obtido da API&#xa;" style="rhombus;" vertex="1" parent="NsYtVN0uM_aZ8hlB4DjH-22">
          <mxGeometry x="245" y="320" width="170" height="90" as="geometry" />
        </mxCell>
        <mxCell id="vWoB-QgcXEhtbPOPWoaA-17" value="" style="edgeStyle=elbowEdgeStyle;rounded=0;orthogonalLoop=1;jettySize=auto;html=1;" edge="1" parent="NsYtVN0uM_aZ8hlB4DjH-22" source="vWoB-QgcXEhtbPOPWoaA-13" target="vWoB-QgcXEhtbPOPWoaA-15">
          <mxGeometry relative="1" as="geometry" />
        </mxCell>
        <mxCell id="vWoB-QgcXEhtbPOPWoaA-13" value="permitir acesso" style="html=1;align=center;verticalAlign=top;rounded=1;absoluteArcSize=1;arcSize=10;dashed=0;whiteSpace=wrap;" vertex="1" parent="NsYtVN0uM_aZ8hlB4DjH-22">
          <mxGeometry x="260" y="460" width="140" height="30" as="geometry" />
        </mxCell>
        <mxCell id="vWoB-QgcXEhtbPOPWoaA-15" value="" style="html=1;points=[];perimeter=orthogonalPerimeter;fillColor=strokeColor;rotation=90;" vertex="1" parent="NsYtVN0uM_aZ8hlB4DjH-22">
          <mxGeometry x="328.75" y="495" width="2.5" height="80" as="geometry" />
        </mxCell>
        <mxCell id="vWoB-QgcXEhtbPOPWoaA-16" value="" style="edgeStyle=elbowEdgeStyle;rounded=0;orthogonalLoop=1;jettySize=auto;html=1;exitX=0.386;exitY=0.492;exitDx=0;exitDy=0;exitPerimeter=0;elbow=vertical;" edge="1" parent="NsYtVN0uM_aZ8hlB4DjH-22" source="vWoB-QgcXEhtbPOPWoaA-15" target="NsYtVN0uM_aZ8hlB4DjH-14">
          <mxGeometry relative="1" as="geometry">
            <mxPoint x="370" y="560" as="sourcePoint" />
            <mxPoint x="370" y="610" as="targetPoint" />
          </mxGeometry>
        </mxCell>
        <mxCell id="vWoB-QgcXEhtbPOPWoaA-18" value="negar acesso" style="html=1;align=center;verticalAlign=top;rounded=1;absoluteArcSize=1;arcSize=10;dashed=0;whiteSpace=wrap;" vertex="1" parent="NsYtVN0uM_aZ8hlB4DjH-22">
          <mxGeometry x="410" y="460" width="140" height="30" as="geometry" />
        </mxCell>
        <mxCell id="vWoB-QgcXEhtbPOPWoaA-21" style="edgeStyle=elbowEdgeStyle;rounded=0;orthogonalLoop=1;jettySize=auto;html=1;exitX=0.5;exitY=1;exitDx=0;exitDy=0;elbow=vertical;" edge="1" parent="NsYtVN0uM_aZ8hlB4DjH-22" source="vWoB-QgcXEhtbPOPWoaA-18">
          <mxGeometry relative="1" as="geometry">
            <mxPoint x="370" y="535" as="targetPoint" />
            <Array as="points">
              <mxPoint x="430" y="535" />
            </Array>
          </mxGeometry>
        </mxCell>
      </root>
    </mxGraphModel>
  </diagram>
</mxfile>
